<svg xmlns="http://www.w3.org/2000/svg" width="60" height="60" viewBox="0 0 256 256">
  <defs>
    <linearGradient id="ravenMute" x1="0%" y1="0%" x2="100%" y2="100%">
      <stop offset="0%" stop-color="#6b21a8"/>
      <stop offset="50%" stop-color="#1e1b4b"/>
      <stop offset="100%" stop-color="#facc15"/>
    </linearGradient>
  </defs>
  <path fill="url(#ravenMute)" d="M96 80H48a8 8 0 0 0-8 8v80a8 8 0 0 0 8 8h48l60.69 48.55A8 8 0 0 0 176 216V40a8 8 0 0 0-13.31-6.55Z"/>
  <path fill="url(#ravenMute)" d="M217.94 90.06a8 8 0 0 0-11.32 0L192 104.69l-14.06-14.07a8 8 0 0 0-11.32 11.32L180.69 116l-14.07 14.06a8 8 0 0 0 11.32 11.32L192 127.31l14.06 14.07a8 8 0 0 0 11.32-11.32L203.31 116l14.07-14.06a8 8 0 0 0 0-11.32z"/>
</svg>

